<?xml version="1.0" encoding="utf-8"?>
<!-- Generator: Adobe Illustrator 21.0.2, SVG Export Plug-In . SVG Version: 6.00 Build 0)  -->
<svg version="1.1" id="Layer_1" xmlns="http://www.w3.org/2000/svg" xlink="http://www.w3.org/1999/xlink" x="0px" y="0px"
	 viewBox="0 0 512 512" style="enable-background:new 0 0 512 512;" xml:space="preserve">
<style type="text/css">
	.st0{fill:#4A90E2;}
	.st1{fill:#1A1E75;}
</style>
<title>icon_globalATM02</title>
<desc>Created with Sketch.</desc>
<path class="st0" d="M256.5,457.3c-26.1,0-50.7-4.6-69.4-12.9c-21.6-9.6-33.5-23.6-33.5-39.3c0-13.9,9.7-26.7,27.2-36
	c14.8-7.9,35.1-13.3,57.2-15.1l1.9,22.9c-19,1.6-36.1,6-48.3,12.5c-9.4,5-15,10.9-15,15.7c0,5.8,7.6,12.9,19.8,18.3
	c15.8,7,37.1,10.9,60,10.9s44.3-3.9,60-10.9c12.2-5.4,19.8-12.5,19.8-18.3c0-9.4-22.4-24.8-62.8-28.2l1.9-22.9
	c21.8,1.8,42,7.2,56.7,15.1c17.5,9.4,27.1,22.1,27.1,36c0,15.7-11.9,29.7-33.5,39.3C307.2,452.7,282.6,457.3,256.5,457.3z"/>
<path class="st0" d="M256,508c-56.7,0-110.2-9.8-150.6-27.7c-43.4-19.2-67.3-45.9-67.3-75.2c0-25.1,17.4-48.2,50.4-66.7
	c29.6-16.6,70.7-28.5,115.9-33.6l2.6,22.9c-83.2,9.3-145.9,42.6-145.9,77.4c0,19.4,19.5,39.1,53.6,54.2
	C152.2,475.9,202.4,485,256,485c53.5,0,103.7-9.2,141.3-25.9c34.1-15.1,53.6-34.8,53.6-54c0-34.8-62.5-68.1-145.4-77.4l2.6-22.9
	c45.1,5.1,86.2,17,115.7,33.6c32.8,18.5,50.2,41.5,50.2,66.7c0,29.1-23.9,55.8-67.3,75C366.1,498.1,312.6,508,256,508z"/>
<circle class="st1" cx="256.5" cy="142" r="60.3"/>
<g>
	<path class="st1" d="M256.4,411.8l-9.6-12.8c-4.4-5.9-8.6-12.3-12.6-18.6c-1.7-2.7-3.5-5.4-5.3-8.1l-4.4-6.6
		c-50.6-75.6-108-161.3-108-223.2C116.5,66.1,178.6,4,255,4h1.5C332.9,4,395,66.1,395,142.5c0,64.3-62.1,156.1-111.9,229.9l-0.2,0.3
		c-3.8,5.2-7.3,10.6-10.7,15.7c-2.3,3.5-4.5,6.9-6.8,10.2L256.4,411.8z M255,27c-63.7,0-115.5,51.8-115.5,115.5
		c0,54.9,57.7,141.1,104.1,210.4l4.4,6.6c1.9,2.8,3.7,5.6,5.5,8.3c0.8,1.2,1.6,2.5,2.4,3.7c2.6-4,5.4-8,8.3-12.2
		C309.7,292,372,199.7,372,142.5C372,78.8,320.2,27,256.5,27H255z"/>
</g>
</svg>
